<?xml version="1.0" encoding="UTF-8" standalone="no"?>
<svg width="79px" height="19px" viewBox="0 0 79 19" version="1.1" xmlns="http://www.w3.org/2000/svg">
    <!-- Generator: Sketch 39.1 (31720) - http://www.bohemiancoding.com/sketch -->
    <title>bus_map</title>
    <desc>Created with Sketch.</desc>
    <defs></defs>
    <g id="icons" stroke="none" stroke-width="1" fill="none" fill-rule="evenodd">
        <g id="bus_map">
            <path d="M14.5,0 C12.01525,0 10,2.01525 10,4.5 C10,7.3905 13.24075,10.99725 13.75,11.5485 C13.96075,11.77725 14.137,12 14.5,12 C14.863,12 15.03925,11.77725 15.25,11.5485 C15.75925,10.99725 19,7.3905 19,4.5 C19,2.01525 16.98475,0 14.5,0 L14.5,0 Z M14.5,7.5 C12.84325,7.5 11.5,6.15675 11.5,4.5 C11.5,2.84325 12.84325,1.5 14.5,1.5 C16.15675,1.5 17.5,2.84325 17.5,4.5 C17.5,6.15675 16.15675,7.5 14.5,7.5 L14.5,7.5 Z M6,12 L4,12 L3.33333333,14 L0,14 L3,19 L15,19 L16,14 L13.6666667,14 L13,12 L9,12 L9,10 L7,10 L6,12 Z M14.5,3 C13.672,3 13,3.672 13,4.5 C13,5.328 13.672,6 14.5,6 C15.328,6 16,5.328 16,4.5 C16,3.672 15.328,3 14.5,3 Z" id="Combined-Shape" fill="#37A3EF"></path>
            <path d="M44.5,0 C42.01525,0 40,2.01525 40,4.5 C40,7.3905 43.24075,10.99725 43.75,11.5485 C43.96075,11.77725 44.137,12 44.5,12 C44.863,12 45.03925,11.77725 45.25,11.5485 C45.75925,10.99725 49,7.3905 49,4.5 C49,2.01525 46.98475,0 44.5,0 L44.5,0 Z M44.5,7.5 C42.84325,7.5 41.5,6.15675 41.5,4.5 C41.5,2.84325 42.84325,1.5 44.5,1.5 C46.15675,1.5 47.5,2.84325 47.5,4.5 C47.5,6.15675 46.15675,7.5 44.5,7.5 L44.5,7.5 Z M36,12 L34,12 L33.3333333,14 L30,14 L33,19 L45,19 L46,14 L43.6666667,14 L43,12 L39,12 L39,10 L37,10 L36,12 Z M44.5,3 C43.672,3 43,3.672 43,4.5 C43,5.328 43.672,6 44.5,6 C45.328,6 46,5.328 46,4.5 C46,3.672 45.328,3 44.5,3 Z" id="Combined-Shape" fill="#606A80"></path>
            <path d="M74.5,0 C72.01525,0 70,2.01525 70,4.5 C70,7.3905 73.24075,10.99725 73.75,11.5485 C73.96075,11.77725 74.137,12 74.5,12 C74.863,12 75.03925,11.77725 75.25,11.5485 C75.75925,10.99725 79,7.3905 79,4.5 C79,2.01525 76.98475,0 74.5,0 L74.5,0 Z M74.5,7.5 C72.84325,7.5 71.5,6.15675 71.5,4.5 C71.5,2.84325 72.84325,1.5 74.5,1.5 C76.15675,1.5 77.5,2.84325 77.5,4.5 C77.5,6.15675 76.15675,7.5 74.5,7.5 L74.5,7.5 Z M66,12 L64,12 L63.3333333,14 L60,14 L63,19 L75,19 L76,14 L73.6666667,14 L73,12 L69,12 L69,10 L67,10 L66,12 Z M74.5,3 C73.672,3 73,3.672 73,4.5 C73,5.328 73.672,6 74.5,6 C75.328,6 76,5.328 76,4.5 C76,3.672 75.328,3 74.5,3 Z" id="Combined-Shape" fill="#008AC7"></path>
        </g>
    </g>
</svg>